<?xml version="1.0" encoding="UTF-8"?>
<svg width="7.7px" height="11px" viewBox="0 0 7.7 11" version="1.1" xmlns="http://www.w3.org/2000/svg" xmlns:xlink="http://www.w3.org/1999/xlink">
    <title>编组 51</title>
    <g id="水旱灾害防御专题（吴信枝）-陈莉莉" stroke="none" stroke-width="1" fill="none" fill-rule="evenodd">
        <g id="水旱灾害防御专题-防御形式-雨情子场景" transform="translate(-411, -195.0022)">
            <g id="左侧面板" transform="translate(0, 70)">
                <g id="编组-23" transform="translate(16, 69)">
                    <g id="编组-11" transform="translate(39, 19.0022)">
                        <g id="编组-51" transform="translate(350, 36)">
                            <rect id="矩形" x="0" y="0" width="20" height="20"></rect>
                            <path d="M9.85,1 C8.5256,1 7.54,1.54851752 6.8778,2.67520216 C6.2926,3.62398922 6,4.89892183 6,6.5 C6,8.10107817 6.2926,9.37601078 6.8778,10.3247978 C7.54,11.4366577 8.5256,12 9.85,12 C11.159,12 12.1446,11.4366577 12.8222,10.3247978 C13.4074,9.37601078 13.7,8.10107817 13.7,6.5 C13.7,4.89892183 13.4074,3.62398922 12.8222,2.67520216 C12.1446,1.54851752 11.159,1 9.85,1 Z M9.84183976,2.1 C10.8863501,2.1 11.637092,2.59700997 12.0940653,3.60564784 C12.4204748,4.30730897 12.6,5.27209302 12.6,6.5 C12.6,7.71328904 12.4204748,8.67807309 12.0940653,9.39435216 C11.637092,10.3883721 10.8863501,10.9 9.84183976,10.9 C8.79732938,10.9 8.04658754,10.3883721 7.58961424,9.39435216 C7.26320475,8.67807309 7.1,7.71328904 7.1,6.5 C7.1,5.27209302 7.26320475,4.30730897 7.58961424,3.60564784 C8.04658754,2.59700997 8.79732938,2.1 9.84183976,2.1 Z" id="形状" fill="#DDF8FF" fill-rule="nonzero"></path>
                        </g>
                    </g>
                </g>
            </g>
        </g>
    </g>
</svg>